<svg width="18" height="18" viewBox="0 0 18 18" fill="none" xmlns="http://www.w3.org/2000/svg">
<mask id="mask0_689_8933" style="mask-type:luminance" maskUnits="userSpaceOnUse" x="0" y="0" width="18" height="18">
<path d="M9 18C13.9706 18 18 13.9706 18 9C18 4.02944 13.9706 0 9 0C4.02944 0 0 4.02944 0 9C0 13.9706 4.02944 18 9 18Z" fill="white"/>
</mask>
<g mask="url(#mask0_689_8933)">
<path d="M13 0H5V18H13V0Z" fill="white"/>
<path d="M18 1H13V17H18V1Z" fill="#EC2224"/>
<path d="M5 1H0V17H5V1Z" fill="#EC2224"/>
<path d="M9.00001 4.83278L8.32612 6.08984C8.2496 6.22643 8.11252 6.21368 7.97543 6.13741L7.48767 5.88556L7.8511 7.81676C7.92761 8.16965 7.68238 8.16965 7.56124 8.01638L6.70955 7.06267L6.57222 7.54627C6.56038 7.58577 6.53418 7.61941 6.49877 7.64056C6.46337 7.66171 6.42133 7.66884 6.38094 7.66054L5.30437 7.43444L5.58712 8.4627C5.6477 8.69125 5.69503 8.78616 5.52606 8.84648L5.14227 9.02673L6.99573 10.5325C7.03292 10.5618 7.06072 10.6013 7.07571 10.6463C7.0907 10.6912 7.09222 10.7395 7.08009 10.7853L6.91775 11.3174C7.55658 11.2439 8.12772 11.1333 8.7663 11.0646C8.82271 11.0585 8.91712 11.1517 8.91663 11.2171L8.83227 13.1672H9.14225L9.0932 11.2211C9.0932 11.1556 9.17854 11.0585 9.23494 11.0646C9.87255 11.1328 10.4457 11.2434 11.0833 11.3174L10.9212 10.785C10.909 10.7393 10.9106 10.6911 10.9255 10.6462C10.9404 10.6013 10.9682 10.5618 11.0053 10.5325L12.8585 9.02673L12.4747 8.84624C12.3057 8.78591 12.3521 8.69125 12.4136 8.46245L12.6964 7.4342L11.6196 7.66054C11.5792 7.66876 11.5372 7.66156 11.5018 7.64037C11.4665 7.61917 11.4403 7.58552 11.4285 7.54602L11.2902 7.06267L10.4388 8.01613C10.3176 8.16842 10.0722 8.16842 10.1487 7.81651L10.5124 5.88556L10.0246 6.13839C9.88751 6.21441 9.75042 6.22741 9.67391 6.08935" fill="#EC2224"/>
</g>
</svg>
