<svg width="22" height="22" viewBox="0 0 22 22" fill="none" xmlns="http://www.w3.org/2000/svg">
<g id="ph:star-light">
<path id="Vector" d="M20.393 8.41339C20.322 8.188 20.1852 7.98899 20.0002 7.84197C19.8152 7.69495 19.5905 7.60664 19.3549 7.5884L14.245 7.14668C14.2141 7.14364 14.1846 7.13229 14.1596 7.11383C14.1347 7.09537 14.1152 7.07049 14.1032 7.04183L12.1069 2.28433C12.0144 2.0673 11.8602 1.88224 11.6634 1.75216C11.4666 1.62209 11.2359 1.55273 11 1.55273C10.7641 1.55273 10.5334 1.62209 10.3366 1.75216C10.1398 1.88224 9.9856 2.0673 9.89314 2.28433L7.89681 7.04183C7.88485 7.07049 7.86535 7.09537 7.84039 7.11383C7.81542 7.13229 7.78592 7.14364 7.75502 7.14668L2.64517 7.5884C2.40957 7.60664 2.18481 7.69495 1.99981 7.84197C1.81481 7.98899 1.67802 8.188 1.60705 8.41339C1.53188 8.63911 1.52531 8.88204 1.58818 9.11148C1.65105 9.34093 1.78053 9.54658 1.96025 9.70246L5.83689 13.0841C5.86063 13.1052 5.87826 13.1323 5.88794 13.1625C5.89761 13.1927 5.89898 13.225 5.89189 13.256L4.72658 18.2842C4.67226 18.5157 4.68776 18.7581 4.77111 18.9808C4.85447 19.2035 5.00196 19.3965 5.19494 19.5354C5.38492 19.6756 5.61257 19.7556 5.84848 19.7651C6.08439 19.7746 6.31774 19.7132 6.51838 19.5887L10.9106 16.9246C10.9365 16.9087 10.9662 16.9002 10.9966 16.9002C11.0269 16.9002 11.0567 16.9087 11.0825 16.9246L15.4748 19.5887C15.6775 19.7128 15.9125 19.7741 16.15 19.7648C16.3875 19.7555 16.6169 19.6761 16.8094 19.5366C17.0018 19.397 17.1486 19.2036 17.2311 18.9807C17.3137 18.7578 17.3285 18.5154 17.2735 18.2842L16.1116 13.2543C16.1045 13.2233 16.1059 13.191 16.1155 13.1608C16.1252 13.1305 16.1428 13.1035 16.1666 13.0824L20.0432 9.70074C20.222 9.5446 20.3506 9.33905 20.4129 9.10998C20.4751 8.88091 20.4682 8.63855 20.393 8.41339ZM19.3617 8.92214L15.4851 12.3038C15.3199 12.4475 15.1971 12.6336 15.1298 12.842C15.0626 13.0503 15.0535 13.2731 15.1035 13.4863L16.2654 18.5162C16.274 18.55 16.2721 18.5856 16.26 18.6183C16.2478 18.651 16.2261 18.6792 16.1975 18.6993C16.1717 18.7199 16.1399 18.7319 16.1068 18.7332C16.0738 18.7346 16.0411 18.7254 16.0136 18.707L11.6213 16.0429C11.4341 15.9291 11.2192 15.8689 11 15.8689C10.7809 15.8689 10.5659 15.9291 10.3787 16.0429L5.98642 18.707C5.95894 18.7254 5.92628 18.7346 5.8932 18.7332C5.86013 18.7319 5.82836 18.7199 5.80252 18.6993C5.77397 18.6792 5.75218 18.651 5.74006 18.6183C5.72793 18.5856 5.72604 18.55 5.73463 18.5162L6.8965 13.4863C6.94652 13.2731 6.93742 13.0503 6.87019 12.842C6.80295 12.6336 6.68012 12.4475 6.51494 12.3038L2.6383 8.92214C2.61178 8.8996 2.59274 8.86953 2.58369 8.83593C2.57463 8.80232 2.576 8.76676 2.58759 8.73394C2.59627 8.70126 2.61509 8.67218 2.64134 8.65087C2.66759 8.62956 2.69992 8.61712 2.73369 8.61535L7.84439 8.17363C8.06318 8.15499 8.2727 8.07682 8.45024 7.94761C8.62778 7.81839 8.76658 7.64305 8.85158 7.44058L10.8479 2.68308C10.8618 2.65355 10.8838 2.62859 10.9113 2.6111C10.9389 2.59361 10.9708 2.58433 11.0035 2.58433C11.0361 2.58433 11.068 2.59361 11.0956 2.6111C11.1231 2.62859 11.1451 2.65355 11.159 2.68308L13.1485 7.44058C13.2332 7.64256 13.3715 7.81758 13.5483 7.94676C13.7252 8.07594 13.934 8.15439 14.1522 8.17363L19.2629 8.61535C19.2967 8.61712 19.329 8.62956 19.3553 8.65087C19.3815 8.67218 19.4003 8.70126 19.409 8.73394C19.421 8.76642 19.4229 8.80177 19.4145 8.83535C19.406 8.86893 19.3877 8.89919 19.3617 8.92214Z" fill="#818181"/>
</g>
</svg>
