<svg width="71" height="70" viewBox="0 0 71 70" fill="none" xmlns="http://www.w3.org/2000/svg">
<g id="icn_fall">
<path id="Vector" d="M66.8672 65H4.52884C3.99862 64.9985 3.47801 64.8584 3.01874 64.5934C2.55947 64.3284 2.17755 63.9479 1.91092 63.4896C1.64216 63.0326 1.50031 62.5121 1.5 61.982C1.49969 61.4519 1.64095 60.9313 1.90917 60.474L33.0888 6.50739C33.3529 6.04969 33.7328 5.66948 34.1902 5.4049C34.6477 5.14032 35.1667 5.00068 35.6951 4.99997C36.2236 4.99927 36.7429 5.13752 37.2011 5.40087C37.6592 5.66423 38.0401 6.04342 38.3055 6.50041L69.4083 60.3397C69.7027 60.7962 69.8685 61.3237 69.8885 61.8665C69.9084 62.4093 69.7817 62.9475 69.5216 63.4244C69.2616 63.9013 68.8778 64.2993 68.4107 64.5766C67.9436 64.8539 67.4104 65.0001 66.8672 65ZM35.6945 6.74634C35.4729 6.74863 35.2556 6.80812 35.0637 6.91904C34.8718 7.02996 34.7118 7.18855 34.5992 7.37945L3.41958 61.3443C3.30302 61.5352 3.2412 61.7544 3.24089 61.978C3.24059 62.2017 3.3018 62.4211 3.41784 62.6123C3.53063 62.8073 3.69256 62.9693 3.8875 63.0822C4.08243 63.1952 4.30356 63.255 4.52884 63.2559H66.8672C67.2039 63.2518 67.5258 63.1165 67.7642 62.8787C68.0027 62.6409 68.1389 62.3194 68.1439 61.9826C68.1403 61.7158 68.0591 61.4558 67.9101 61.2344L36.7985 7.37945C36.6852 7.18729 36.5238 7.02789 36.3302 6.9169C36.1367 6.80591 35.9176 6.74713 35.6945 6.74634Z" fill="#0F0F0F"/>
<path id="Vector_2" d="M38.5292 52.0548L33.8795 48.5963C33.5977 48.3913 33.3543 48.1285 33.1494 47.8078C32.9444 47.487 32.8035 47.1478 32.7267 46.7902L30.9975 39.1431L27.6158 42.0636L28.5381 46.3675C28.6406 46.803 28.5704 47.2001 28.3275 47.5587C28.0846 47.9174 27.7449 48.1352 27.3084 48.212C26.8729 48.2889 26.4758 48.212 26.1172 47.9814C25.7585 47.7509 25.5407 47.4178 25.4639 46.9823L24.5801 42.7169C24.452 42.1789 24.4776 41.647 24.6569 41.1214C24.8362 40.5957 25.1309 40.154 25.5407 39.7964L31.0743 34.8777C31.6635 34.3653 32.3614 34.1537 33.1678 34.2428C33.9743 34.332 34.7495 34.5308 35.4935 34.8392C36.3133 35.1979 37.1653 35.4541 38.0497 35.6078C38.934 35.7615 39.824 35.7743 40.7196 35.6462C41.3345 35.5437 41.9237 35.3644 42.4873 35.1082C43.0509 34.852 43.5889 34.5446 44.1012 34.186C44.4599 33.9298 44.8508 33.8211 45.274 33.8601C45.6973 33.899 46.0493 34.0845 46.33 34.4165C46.6118 34.7496 46.721 35.1277 46.6574 35.5509C46.5939 35.9741 46.3823 36.3133 46.0226 36.5685C45.4334 36.9784 44.8314 37.3437 44.2165 37.6644C43.6017 37.9852 42.9484 38.2475 42.2567 38.4514C41.4113 38.682 40.5598 38.8039 39.7021 38.8172C38.8444 38.8306 37.9923 38.7342 37.1459 38.5283L38.2218 43.2933L42.641 42.4479C43.0509 42.371 43.4546 42.3772 43.8522 42.4663C44.2498 42.5555 44.6274 42.7287 44.9851 42.9859L50.6339 46.9823C50.9926 47.2385 51.2042 47.5782 51.2687 48.0014C51.3333 48.4246 51.2242 48.8151 50.9413 49.1727C50.6851 49.5057 50.3583 49.7045 49.9607 49.7691C49.5631 49.8337 49.1855 49.7501 48.8278 49.5185L43.448 45.7526L37.9144 46.8286L40.5275 48.75C40.9886 49.1087 41.3283 49.557 41.5466 50.095C41.7648 50.6329 41.8222 51.1966 41.7187 51.7858L40.6428 57.7036C40.5659 58.1391 40.3481 58.4788 39.9895 58.7227C39.6308 58.9666 39.2338 59.0496 38.7982 58.9717C38.3627 58.8949 38.0297 58.6771 37.7991 58.3185C37.5686 57.9598 37.4917 57.5627 37.5686 57.1272L38.5292 52.0548ZM31.9197 33.1484C31.0743 33.1484 30.3503 32.8471 29.7478 32.2446C29.1452 31.6421 28.8445 30.9186 28.8455 30.0742C28.8455 29.2288 29.1468 28.5048 29.7493 27.9023C30.3519 27.2997 31.0753 26.999 31.9197 27C32.7651 27 33.4891 27.3013 34.0916 27.9038C34.6942 28.5064 34.9949 29.2298 34.9939 30.0742C34.9939 30.9196 34.6926 31.6436 34.0901 32.2461C33.4876 32.8487 32.7641 33.1494 31.9197 33.1484Z" fill="#0F0F0F"/>
</g>
</svg>
