<svg width="70" height="70" viewBox="0 0 70 70" fill="none" xmlns="http://www.w3.org/2000/svg">
<g id="icn_care">
<g id="Group">
<path id="Vector" d="M30.5536 50.8475C30.3198 49.8299 29.7781 48.909 29.0021 48.2105L22.9226 42.7211C22.779 42.5897 22.6098 42.4895 22.4256 42.4268C22.2414 42.3641 22.0461 42.3403 21.8523 42.3569C21.6584 42.3734 21.47 42.43 21.2991 42.5231C21.1282 42.6161 20.9784 42.7435 20.8592 42.8974C19.9653 44.0426 19.6924 45.3126 20.0907 46.4733C20.3397 47.1989 20.8247 47.958 21.3454 48.6338L16.8801 47.3004C16.621 47.2226 16.3837 47.0852 16.1872 46.8993C15.9907 46.7133 15.8405 46.4839 15.7485 46.2295L15.1461 44.5453C14.8301 43.6698 14.2521 42.9127 13.4908 42.3772C12.7294 41.8416 11.8216 41.5534 10.8908 41.5518H6.73488C6.42301 41.5518 6.11528 41.6233 5.83534 41.7607C5.55539 41.8982 5.31067 42.098 5.11997 42.3448C4.92927 42.5915 4.79766 42.8787 4.73525 43.1843C4.67284 43.4899 4.68129 43.8057 4.75995 44.1075L6.51621 51.0067C6.89844 52.5504 7.30606 53.7972 8.75695 54.6266L19.2564 60.6304C19.6371 60.8492 19.9544 61.1632 20.1771 61.5417C20.3998 61.9201 20.5203 62.3499 20.5268 62.7889L20.5642 65.7696L20.5647 65.7852C20.5644 65.7937 20.5642 65.8022 20.5642 65.8108C20.5642 68.1598 23.5136 70 27.2789 70C30.2532 70 32.8292 68.8299 33.6886 67.0882C33.9632 66.5186 34.033 65.8717 33.8862 65.2566L30.5536 50.8475ZM32.2715 66.3891C31.7736 67.3983 29.8987 68.42 27.2788 68.42C24.5435 68.42 22.1441 67.2007 22.1441 65.8108C22.1441 65.8022 22.144 65.7937 22.1437 65.7853C22.1441 65.7735 22.1443 65.7616 22.1441 65.7497L22.1067 62.769C22.0961 62.0551 21.9001 61.3561 21.5379 60.7408C21.1757 60.1254 20.6598 59.6148 20.0407 59.2589L9.54116 53.2551C8.69805 52.773 8.41091 52.0856 8.0486 50.6221L6.28926 43.7105C6.2712 43.6423 6.26905 43.5708 6.28298 43.5016C6.29692 43.4325 6.32655 43.3674 6.36961 43.3115C6.41267 43.2555 6.468 43.2103 6.53133 43.1791C6.59466 43.148 6.6643 43.1318 6.73488 43.1318H7.20277C7.20763 43.1786 7.21666 43.2248 7.22973 43.27L9.53892 51.1136C9.62056 51.3843 9.75701 51.6354 9.93979 51.8513C10.1226 52.0671 10.3478 52.243 10.6014 52.3681L12.6325 53.3662C12.7256 53.412 12.8268 53.4389 12.9303 53.4456C13.0339 53.4522 13.1377 53.4384 13.2359 53.4049C13.3341 53.3714 13.4247 53.3189 13.5026 53.2504C13.5805 53.1819 13.6442 53.0987 13.6899 53.0056C13.7357 52.9125 13.7626 52.8113 13.7693 52.7077C13.7759 52.6042 13.7621 52.5004 13.7286 52.4022C13.6951 52.304 13.6426 52.2134 13.5741 52.1355C13.5056 52.0576 13.4224 51.9939 13.3293 51.9482L11.2983 50.95C11.2401 50.9215 11.1883 50.8813 11.1462 50.8321C11.1041 50.7828 11.0726 50.7254 11.0535 50.6635L8.83615 43.1318H10.1093L11.7063 49.1247C11.7849 49.4101 11.9242 49.6752 12.1147 49.9018C12.3053 50.1283 12.5426 50.311 12.8103 50.4373L14.9083 51.428C15.0977 51.5175 15.315 51.528 15.5122 51.4573C15.7094 51.3866 15.8705 51.2404 15.96 51.051C16.0494 50.8615 16.06 50.6443 15.9893 50.447C15.9186 50.2498 15.7724 50.0887 15.5829 49.9993L13.485 49.0086C13.4239 48.9801 13.3696 48.9388 13.3258 48.8875C13.282 48.8362 13.2497 48.7762 13.2311 48.7114L11.7813 43.2707C12.2119 43.408 12.6051 43.6424 12.9307 43.9558C13.2562 44.2692 13.5053 44.6533 13.6588 45.0784L14.2612 46.7624C14.4372 47.2498 14.7248 47.6893 15.1011 48.0457C15.4774 48.402 15.9319 48.6653 16.4282 48.8145L23.6373 50.9671C23.8089 51.0184 23.9929 51.0097 24.159 50.9427C24.3251 50.8756 24.4635 50.7541 24.5515 50.598C24.6394 50.4419 24.6717 50.2606 24.6431 50.0837C24.6144 49.9069 24.5265 49.7451 24.3937 49.6248C23.7673 49.0566 22.0418 47.2909 21.5852 45.9605C21.3301 45.2172 21.6437 44.5134 21.9972 44.0142L27.9433 49.3831C28.479 49.8653 28.853 50.501 29.0143 51.2035L32.3469 65.6127C32.4117 65.8724 32.3851 66.1466 32.2715 66.3891Z" fill="black"/>
<path id="Vector_2" d="M64.5533 42.3478C64.3634 42.0994 64.1186 41.8982 63.8381 41.7601C63.5575 41.622 63.2487 41.5507 62.936 41.5518H58.7802C57.8492 41.5535 56.9412 41.8417 56.1798 42.3775C55.4184 42.9133 54.8405 43.6705 54.5245 44.5463L53.9227 46.2289C53.8308 46.4835 53.6806 46.713 53.484 46.8991C53.2875 47.0851 53.0501 47.2226 52.7909 47.3005L48.3256 48.6339C48.8462 47.9581 49.3313 47.1991 49.5803 46.4734C49.9786 45.3127 49.7056 44.0427 48.8117 42.8975C48.6926 42.7436 48.5428 42.6162 48.3719 42.5232C48.201 42.4301 48.0126 42.3735 47.8187 42.357C47.6249 42.3404 47.4297 42.3642 47.2454 42.4269C47.0612 42.4896 46.892 42.5898 46.7484 42.7211L40.6688 48.2105C39.8929 48.9092 39.3512 49.83 39.1175 50.8475L35.7849 65.2566C35.6381 65.8717 35.7079 66.5186 35.9825 67.0882C36.8419 68.8299 39.4178 70 42.3922 70C46.1575 70 49.1069 68.1598 49.1069 65.8108C49.1069 65.8022 49.1067 65.7936 49.1064 65.7851L49.1069 65.7696L49.1443 62.7889C49.1508 62.3499 49.2713 61.9201 49.494 61.5417C49.7167 61.1632 50.034 60.8492 50.4147 60.6304L60.9139 54.6266C62.365 53.7972 62.7725 52.5504 63.1536 51.0117L64.9093 44.1147C64.9903 43.8127 65.0003 43.4961 64.9385 43.1895C64.8768 42.883 64.7449 42.5949 64.5533 42.3478ZM63.3799 43.7178L61.6211 50.6271C61.26 52.0856 60.9729 52.773 60.1296 53.2551L49.6302 59.2589C49.0111 59.6148 48.4952 60.1254 48.133 60.7408C47.7708 61.3561 47.5748 62.0551 47.5642 62.769L47.5268 65.7497C47.5266 65.7616 47.5268 65.7735 47.5272 65.7853C47.5269 65.7939 47.5268 65.8023 47.5268 65.8108C47.5268 67.2007 45.1274 68.42 42.3921 68.42C39.7723 68.42 37.8973 67.3983 37.3994 66.3891C37.2858 66.1466 37.2592 65.8724 37.324 65.6126L40.6566 51.2035C40.818 50.5011 41.1919 49.8654 41.7275 49.3831L47.6738 44.0142C48.0272 44.5134 48.3409 45.2172 48.0857 45.9605C47.6292 47.2909 45.9036 49.0566 45.2775 49.6245C45.1446 49.7448 45.0566 49.9066 45.0279 50.0835C44.9991 50.2604 45.0314 50.4418 45.1193 50.5979C45.2072 50.754 45.3456 50.8756 45.5118 50.9427C45.6779 51.0098 45.862 51.0184 46.0337 50.9672L53.2427 48.8145C53.7391 48.6653 54.1937 48.4019 54.57 48.0454C54.9464 47.689 55.234 47.2493 55.41 46.7617L56.0118 45.0793C56.1652 44.654 56.4144 44.2698 56.74 43.9562C57.0656 43.6427 57.459 43.4081 57.8896 43.2708L56.4417 48.7048C56.4235 48.7709 56.3912 48.8323 56.3471 48.8847C56.303 48.9372 56.248 48.9794 56.186 49.0087L54.0881 49.9993C53.9943 50.0436 53.9101 50.106 53.8404 50.1828C53.7707 50.2596 53.7168 50.3495 53.6818 50.4471C53.6468 50.5448 53.6313 50.6484 53.6363 50.752C53.6414 50.8556 53.6668 50.9572 53.7111 51.0511C53.7554 51.1449 53.8177 51.229 53.8945 51.2988C53.9714 51.3685 54.0612 51.4224 54.1588 51.4574C54.2565 51.4924 54.3601 51.5078 54.4637 51.5028C54.5673 51.4978 54.6689 51.4724 54.7628 51.4281L56.8607 50.4374C57.1294 50.3104 57.3673 50.1267 57.5582 49.899C57.7491 49.6713 57.8884 49.4049 57.9666 49.1182L59.5617 43.1318H60.8348L58.6186 50.6597C58.5997 50.7224 58.5682 50.7805 58.5259 50.8305C58.4836 50.8804 58.4314 50.9211 58.3727 50.9501L56.1969 52.0193C56.0089 52.1117 55.8652 52.275 55.7976 52.4733C55.73 52.6717 55.7439 52.8887 55.8363 53.0768C55.9287 53.2648 56.092 53.4084 56.2903 53.4761C56.4887 53.5437 56.7057 53.5298 56.8938 53.4374L59.0696 52.3681C59.3237 52.2426 59.5493 52.0661 59.7323 51.8497C59.9153 51.6332 60.0518 51.3813 60.1332 51.1098L62.4412 43.27C62.4543 43.2248 62.4633 43.1786 62.4682 43.1318H62.9361C63.0068 43.1312 63.0767 43.1472 63.1401 43.1784C63.2036 43.2096 63.2588 43.2552 63.3015 43.3117C63.3455 43.3684 63.3756 43.4348 63.3892 43.5054C63.4028 43.5759 63.3996 43.6487 63.3799 43.7178Z" fill="black"/>
<path id="Vector_3" d="M51.2439 6.99818C51.1677 6.91359 51.0755 6.84494 50.9726 6.79619C50.8698 6.74745 50.7582 6.71957 50.6445 6.71417C50.5308 6.70877 50.4171 6.72596 50.3101 6.76474C50.2031 6.80352 50.1048 6.86312 50.0209 6.94011C49.937 7.0171 49.8692 7.10994 49.8214 7.21327C49.7737 7.31661 49.7468 7.42838 49.7425 7.54215C49.7381 7.65592 49.7564 7.76941 49.7962 7.87609C49.8359 7.98276 49.8965 8.08049 49.9742 8.16364C52.4446 10.8569 54.1249 14.1789 54.8304 17.7648C55.5358 21.3507 55.2392 25.0617 53.9731 28.49C53.0711 26.1701 52.0631 23.223 51.2456 20.5089C50.2792 17.3016 48.1895 16.3802 46.9901 15.9996C47.142 15.5437 47.2194 15.0662 47.2194 14.5856C47.2194 14.4885 47.2149 14.3925 47.2087 14.297H48.0492C48.2587 14.297 48.4596 14.2138 48.6078 14.0656C48.7559 13.9175 48.8392 13.7165 48.8392 13.507C48.8392 13.2975 48.7559 13.0966 48.6078 12.9484C48.4596 12.8003 48.2587 12.7171 48.0492 12.7171H47.2194V10.6492C47.2184 9.75622 46.8632 8.90014 46.2318 8.26873C45.6004 7.63733 44.7443 7.28215 43.8514 7.28113H41.6692C40.7762 7.28214 39.9201 7.63731 39.2887 8.26872C38.6573 8.90013 38.3021 9.75622 38.3011 10.6492V12.7171H37.4713C37.2618 12.7171 37.0609 12.8003 36.9127 12.9485C36.7646 13.0966 36.6813 13.2975 36.6813 13.5071C36.6813 13.7166 36.7646 13.9175 36.9127 14.0657C37.0609 14.2138 37.2618 14.297 37.4713 14.297H38.2458C38.2396 14.3926 38.2351 14.4886 38.2351 14.5856C38.235 15.0243 38.2994 15.4607 38.4262 15.8807C37.3471 16.1791 35.5993 16.966 34.6746 19.0093C34.4177 19.5872 34.2551 20.2024 34.1929 20.8318L34.1059 21.6596C33.3424 20.5092 32.2654 19.6015 31.0024 19.0436C31.2061 18.5835 31.3302 18.0921 31.3698 17.5904C31.9957 17.2506 32.4776 16.696 32.7266 16.0287C32.9756 15.3615 32.9749 14.6267 32.7246 13.9599C32.4744 13.2932 31.9914 12.7394 31.3649 12.4008C30.7384 12.0621 30.0105 11.9615 29.3156 12.1175C29.2781 12.1245 29.2393 12.1213 29.2034 12.1082C29.1675 12.0951 29.1358 12.0726 29.1117 12.0431C28.8347 11.7274 28.4935 11.4745 28.1109 11.3012C27.7283 11.128 27.3132 11.0383 26.8932 11.0383C26.4733 11.0383 26.0581 11.128 25.6756 11.3012C25.293 11.4745 24.9518 11.7274 24.6748 12.0431C24.6506 12.0726 24.6188 12.0951 24.5829 12.1082C24.547 12.1212 24.5083 12.1245 24.4707 12.1175C24.0555 12.0243 23.6251 12.0221 23.2089 12.1108C22.7927 12.1995 22.4006 12.3771 22.0595 12.6315C21.7183 12.8859 21.4362 13.211 21.2324 13.5845C21.0287 13.9581 20.908 14.3713 20.8788 14.7958C20.8388 15.3602 20.9627 15.9242 21.2354 16.4199C21.5082 16.9157 21.9183 17.3221 22.4165 17.5904C22.4515 18.0333 22.5525 18.4685 22.7161 18.8816C21.4431 19.3407 19.3144 20.4606 18.6266 22.9439C18.0997 24.8463 17.316 26.4808 16.4983 27.9824C15.8008 25.9275 15.4459 23.7718 15.4479 21.6018C15.4479 10.6409 24.3652 1.72362 35.3261 1.72362C39.242 1.7173 43.0717 2.8731 46.3303 5.04467C46.4245 5.10741 46.5301 5.15099 46.6411 5.1729C46.7522 5.19482 46.8664 5.19466 46.9774 5.17242C47.0884 5.15018 47.1939 5.1063 47.2879 5.04329C47.3819 4.98028 47.4626 4.89937 47.5253 4.80518C47.588 4.71099 47.6316 4.60536 47.6535 4.49433C47.6754 4.3833 47.6753 4.26904 47.653 4.15808C47.6308 4.04711 47.5869 3.94162 47.5239 3.84761C47.4609 3.7536 47.38 3.67292 47.2858 3.61019C43.7443 1.24981 39.5821 -0.00660212 35.3261 2.60906e-05C23.4148 2.60906e-05 13.7243 9.69052 13.7243 21.6017C13.7243 33.513 23.4148 43.2036 35.3261 43.2036C47.2374 43.2036 56.9279 33.5131 56.9279 21.6017C56.9338 16.1929 54.9048 10.9798 51.2439 6.99818ZM39.8811 10.6491C39.8816 10.1751 40.0702 9.72059 40.4054 9.38538C40.7406 9.05017 41.1951 8.86161 41.6692 8.86107H43.8514C44.3255 8.86161 44.78 9.05017 45.1152 9.38538C45.4504 9.7206 45.639 10.1751 45.6395 10.6492V12.7171H39.8811V10.6491ZM39.815 14.5827C39.8165 14.5059 39.8483 14.4328 39.9034 14.3793C39.9585 14.3258 40.0325 14.2962 40.1093 14.297H45.3452C45.422 14.2962 45.496 14.3258 45.5511 14.3793C45.6062 14.4328 45.638 14.5059 45.6395 14.5827V14.5855C45.6395 15.3579 45.3327 16.0987 44.7865 16.6448C44.2404 17.191 43.4996 17.4978 42.7273 17.4978C41.9549 17.4978 41.2141 17.191 40.668 16.6448C40.1218 16.0987 39.815 15.3579 39.815 14.5855V14.5827ZM22.4551 14.9017C22.4691 14.7046 22.5255 14.5128 22.6204 14.3395C22.7153 14.1661 22.8465 14.0153 23.005 13.8973C23.1635 13.7794 23.3457 13.697 23.5389 13.6559C23.7322 13.6148 23.9321 13.6159 24.125 13.6591C24.4393 13.7284 24.7665 13.7117 25.0722 13.6108C25.3779 13.5098 25.6507 13.3284 25.862 13.0856C25.9907 12.9388 26.1493 12.8212 26.3271 12.7406C26.5049 12.66 26.6979 12.6183 26.8931 12.6183C27.0883 12.6182 27.2813 12.6599 27.4592 12.7405C27.637 12.821 27.7956 12.9386 27.9243 13.0854C28.1356 13.3283 28.4084 13.5097 28.7141 13.6107C29.0198 13.7116 29.347 13.7283 29.6614 13.6591C29.796 13.629 29.9345 13.6193 30.0721 13.6303C30.3294 13.6509 30.5758 13.7437 30.7827 13.898C30.9896 14.0523 31.1489 14.2618 31.2421 14.5025C31.3353 14.7432 31.3588 15.0053 31.3098 15.2588C31.2608 15.5122 31.1412 15.7467 30.965 15.9352C30.8326 16.0769 30.6718 16.1889 30.493 16.2639C30.3142 16.3388 30.1216 16.3751 29.9278 16.3702C29.734 16.3653 29.5435 16.3194 29.3687 16.2355C29.1939 16.1516 29.0389 16.0316 28.9139 15.8834C28.7524 15.6938 28.5512 15.5418 28.3247 15.4381C28.0982 15.3344 27.8517 15.2816 27.6026 15.2832C27.4664 15.2833 27.3308 15.2986 27.198 15.3289C26.9974 15.3741 26.7892 15.3741 26.5886 15.3289C26.2793 15.2545 25.9554 15.2669 25.6526 15.3648C25.3499 15.4626 25.0799 15.642 24.8726 15.8834C24.6858 16.1046 24.4339 16.2611 24.1528 16.3304C23.8717 16.3998 23.5759 16.3785 23.3077 16.2696C23.0395 16.1606 22.8125 15.9697 22.6594 15.724C22.5063 15.4783 22.4348 15.1905 22.4551 14.9017ZM29.714 17.9391C29.5574 18.5687 29.1946 19.1279 28.6834 19.5275C28.1722 19.9271 27.542 20.1442 26.8932 20.1442C26.2443 20.1442 25.6141 19.9271 25.103 19.5275C24.5918 19.1279 24.229 18.5687 24.0724 17.9391C24.4586 17.9069 24.8348 17.7988 25.1792 17.621C25.5236 17.4432 25.8296 17.1992 26.0795 16.903C26.1009 16.8842 26.1267 16.8712 26.1545 16.8653C26.1824 16.8595 26.2112 16.8609 26.2383 16.8696C26.6696 16.9668 27.117 16.9668 27.5482 16.8696C27.5754 16.861 27.6042 16.8595 27.6321 16.8654C27.6599 16.8713 27.6857 16.8843 27.707 16.9031C27.957 17.1993 28.2629 17.4433 28.6073 17.6211C28.9517 17.7988 29.3278 17.9069 29.714 17.9391ZM20.5524 34.8865C20.1235 34.41 19.7178 33.9132 19.3354 33.3963C19.3761 33.355 19.4122 33.3093 19.4429 33.2601L20.2479 31.9483C20.3629 31.7659 20.6137 31.3574 20.93 30.782L20.5524 34.8865ZM22.0123 36.3479L22.0653 35.6872L22.9385 26.1934C22.9394 26.1844 22.9391 26.1756 22.9397 26.1667C23.1342 25.5607 23.2969 24.9449 23.4272 24.3219C23.4482 24.2203 23.4489 24.1156 23.4294 24.0137C23.4099 23.9118 23.3705 23.8147 23.3134 23.7281C23.1983 23.5531 23.0183 23.431 22.8131 23.3886C22.7115 23.3677 22.6067 23.367 22.5048 23.3865C22.403 23.406 22.3059 23.4454 22.2193 23.5024C22.0442 23.6176 21.9221 23.7976 21.8798 24.0028C21.1814 27.3898 19.2845 30.5139 18.9063 31.1139L18.3767 31.9768C17.9594 31.2976 17.5834 30.5938 17.2507 29.8694C17.2585 29.8571 17.2674 29.8459 17.2746 29.8332C18.297 28.0344 19.4465 25.903 20.1492 23.3656C20.7089 21.3442 22.679 20.5308 23.5778 20.2598C23.989 20.7112 24.488 21.0739 25.0444 21.3256C25.6007 21.5773 26.2026 21.7127 26.8131 21.7235C27.4237 21.7343 28.03 21.6203 28.5949 21.3885C29.1598 21.1566 29.6714 20.8119 30.0983 20.3753C32.4082 21.2824 35.3986 23.9961 33.1126 32.1032H30.754C31.3821 30.5205 32.1817 27.4375 30.8187 23.9975C30.7408 23.8037 30.5894 23.6485 30.3975 23.566C30.2056 23.4835 29.9888 23.4804 29.7946 23.5574C29.6004 23.6343 29.4445 23.7851 29.3612 23.9766C29.2778 24.1682 29.2737 24.3849 29.3498 24.5795C30.5342 27.5689 29.7996 30.2566 29.2565 31.5928C29.1631 31.8237 29.128 32.074 29.154 32.3217C29.1801 32.5693 29.2666 32.8068 29.4059 33.0133C29.5452 33.2197 29.7331 33.3887 29.9531 33.5055C30.173 33.6223 30.4183 33.6833 30.6674 33.6831H31.1716L31.9685 41.195C28.2567 40.5578 24.8033 38.8765 22.0123 36.3479ZM36.311 41.4555C35.9846 41.4714 35.6563 41.4796 35.3261 41.48C34.7375 41.48 34.1552 41.4527 33.5794 41.4023L32.7605 33.683H33.7048C33.7067 33.683 33.7086 33.6825 33.7105 33.6825C33.7135 33.6825 33.7164 33.683 33.7194 33.683H36.8354L36.311 41.4555ZM43.23 39.8392L43.0505 32.7489C43.0487 32.6446 43.0263 32.5417 42.9846 32.4461C42.9428 32.3506 42.8826 32.2642 42.8073 32.192C42.732 32.1199 42.6432 32.0633 42.5459 32.0256C42.4487 31.988 42.3449 31.9699 42.2407 31.9726C42.1364 31.9752 42.0337 31.9985 41.9385 32.041C41.8432 32.0836 41.7574 32.1445 41.6858 32.2204C41.6143 32.2963 41.5585 32.3856 41.5216 32.4832C41.4848 32.5807 41.4676 32.6846 41.4711 32.7888L41.665 40.4435C40.4428 40.8556 39.1831 41.1469 37.9041 41.313L38.8016 28.0118H46.1236L46.7433 37.8648C45.6422 38.6403 44.465 39.3018 43.23 39.8392ZM48.2525 36.6903L47.7569 28.8094C47.8882 29.1438 47.9779 29.3662 48.003 29.4283C48.5191 30.846 49.029 31.9886 49.3665 32.6985C49.4579 32.8925 49.5875 33.0661 49.7476 33.2089C49.9076 33.3517 50.0948 33.4607 50.298 33.5295C50.4662 33.5874 50.6428 33.617 50.8206 33.6171C50.9427 33.617 51.0644 33.6028 51.1832 33.5747C50.3202 34.7148 49.3377 35.7592 48.2525 36.6903ZM52.7538 31.1544C52.7109 31.1673 52.6693 31.1838 52.6292 31.2038C52.3802 31.3296 52.0255 31.4879 51.6824 31.641C51.3563 31.7865 51.0481 31.9241 50.8323 32.033C50.8288 32.0349 50.825 32.0361 50.8211 32.0364C50.8172 32.0367 50.8132 32.0361 50.8095 32.0347C50.8059 32.0337 50.8026 32.0318 50.7998 32.0293C50.797 32.0268 50.7948 32.0237 50.7934 32.0202C50.4697 31.3391 49.9796 30.2405 49.4829 28.875C49.4797 28.866 49.4762 28.8571 49.4727 28.8482C49.4593 28.8154 48.1327 25.5348 47.3711 23.0082C47.3235 22.85 47.2275 22.7106 47.0966 22.6098C46.9657 22.5091 46.8064 22.4519 46.6413 22.4465C46.4761 22.441 46.3134 22.4875 46.1761 22.5795C46.0388 22.6714 45.9339 22.8041 45.876 22.9589L45.8757 22.9585C45.8747 22.9614 45.874 22.9643 45.8729 22.9672C45.8656 22.9873 45.8591 23.0077 45.8534 23.0284C45.8518 23.0341 45.8503 23.04 45.8489 23.0458C45.844 23.0655 45.8398 23.0853 45.8364 23.1053C45.8352 23.1127 45.834 23.1201 45.8329 23.1275C45.8303 23.1464 45.8285 23.1654 45.8272 23.1845C45.8265 23.1932 45.8259 23.2018 45.8256 23.2104C45.825 23.229 45.8254 23.2476 45.8261 23.2664C45.8263 23.2729 45.8258 23.2793 45.8263 23.2859L46.0241 26.4319H38.908L39.1201 23.2894C39.128 23.1854 39.1153 23.0808 39.0827 22.9816C39.05 22.8825 38.998 22.7909 38.9297 22.712C38.8614 22.633 38.7782 22.5685 38.6848 22.5219C38.5914 22.4753 38.4897 22.4478 38.3855 22.4407C38.2814 22.4337 38.1769 22.4474 38.0781 22.481C37.9793 22.5146 37.8881 22.5674 37.8099 22.6364C37.7316 22.7055 37.6678 22.7893 37.6221 22.8832C37.5764 22.977 37.5498 23.079 37.5438 23.1831L36.9419 32.1031H34.7501C35.5414 29.1206 35.6476 26.7874 35.3473 24.9625L35.7641 20.9973C35.8086 20.5359 35.9267 20.0846 36.1139 19.6606C36.8568 18.0191 38.3204 17.4945 39.1716 17.3264C39.5847 17.8636 40.1141 18.3003 40.7201 18.6036C41.3262 18.9069 41.993 19.0689 42.6707 19.0775C43.3483 19.0861 44.0191 18.941 44.6326 18.6531C45.2461 18.3652 45.7864 17.9421 46.2129 17.4154C47.1831 17.6962 48.9129 18.2434 49.7327 20.9647C50.6086 23.8721 51.7014 27.0477 52.6534 29.4529L53.0748 30.5462C52.9712 30.751 52.8642 30.9537 52.7538 31.1544Z" fill="black"/>
</g>
</g>
</svg>
