<svg width="71" height="70" viewBox="0 0 71 70" fill="none" xmlns="http://www.w3.org/2000/svg">
<g id="icn_peace">
<g id="Group 2">
<path id="Vector" d="M61.7928 26.0034C60.8508 15.1144 52.2298 6.34041 41.2948 5.14141C34.6418 4.41241 28.0048 6.52541 23.0818 10.9374C18.2788 15.2424 15.4978 21.3674 15.4238 27.7764L10.4138 36.8834C9.84476 37.9174 9.86376 39.1414 10.4638 40.1574C11.0698 41.1834 12.1468 41.7954 13.3438 41.7954H15.4218V52.5354C15.4218 54.2224 16.1728 55.8064 17.4818 56.8814C18.8048 57.9674 20.5278 58.3984 22.2138 58.0664L27.1218 57.0934V63.9954C27.1218 64.5474 27.5698 64.9954 28.1218 64.9954C28.6738 64.9954 29.1218 64.5474 29.1218 63.9954V56.7054C31.2248 56.2414 36.3768 54.6174 36.3768 49.8564C36.3768 49.3044 35.9288 48.8564 35.3768 48.8564C34.8248 48.8564 34.3768 49.3044 34.3768 49.8564C34.3768 53.9614 28.0508 54.8754 27.9868 54.8844C27.9198 54.8914 21.8958 56.0924 21.8248 56.1044C20.7268 56.3214 19.6098 56.0404 18.7508 55.3354C17.9058 54.6424 17.4218 53.6214 17.4218 52.5354V40.7954C17.4218 40.2434 16.9738 39.7954 16.4218 39.7954H13.3438C12.8618 39.7954 12.4278 39.5504 12.1858 39.1394C11.9448 38.7324 11.9378 38.2614 12.1658 37.8464L17.2978 28.5174C17.3798 28.3704 17.4218 28.2044 17.4218 28.0354C17.4218 22.0994 19.9708 16.4104 24.4158 12.4264C28.9828 8.33341 34.8948 6.45241 41.0758 7.12941C51.0648 8.22441 58.9388 16.2344 59.7998 26.1754C60.3618 32.6684 57.9498 38.9364 53.1818 43.3744C52.9678 43.5604 52.8958 43.8334 52.8608 44.1034V63.9954C52.8608 64.5474 53.3088 64.9954 53.8608 64.9954C54.4128 64.9954 54.8608 64.5474 54.8608 63.9954V44.5264C59.8678 39.6864 62.3948 32.9644 61.7918 26.0024L61.7928 26.0034Z" fill="black"/>
<path id="Vector_2" d="M51.9833 27.1094C51.1164 25.7043 49.8941 24.5527 48.4398 23.7711C48.9175 22.1849 48.9651 20.5002 48.5778 18.8896C48.5214 18.6903 48.4144 18.5089 48.2673 18.3632C48.1201 18.2175 47.9376 18.1123 47.7378 18.058C46.7928 17.8264 45.8169 17.7478 44.847 17.8252C44.5288 17.8481 44.2327 17.9965 44.0238 18.2378C43.815 18.479 43.7105 18.7933 43.7335 19.1116C43.7564 19.4298 43.9048 19.726 44.146 19.9348C44.3873 20.1436 44.7016 20.2481 45.0198 20.2252C45.4761 20.1921 45.9346 20.2022 46.389 20.2552C46.5227 21.1341 46.4558 22.0319 46.1931 22.8813C45.9304 23.7306 45.4788 24.5095 44.8722 25.1595C44.0747 25.9484 43.0474 26.4639 41.9383 26.6318C43.0964 25.2484 43.7333 23.5029 43.7383 21.6987C43.6812 20.2658 43.2658 18.87 42.53 17.639C41.7942 16.408 40.7615 15.3812 39.5263 14.6525C39.3468 14.5515 39.1443 14.4985 38.9384 14.4985C38.7324 14.4985 38.5299 14.5515 38.3504 14.6525C36.938 15.5167 35.7812 16.7414 34.9988 18.2008C33.4173 17.7249 31.7379 17.6769 30.1317 18.0616C29.9333 18.1169 29.7525 18.2223 29.6066 18.3678C29.4608 18.5132 29.3548 18.6937 29.2989 18.892C28.9402 20.2804 28.9357 21.7367 29.2858 23.1273C29.6359 24.5179 30.3295 25.7984 31.3029 26.8514C32.5812 28.1209 34.2638 28.9025 36.0584 29.0606C35.1551 29.7292 34.0623 30.0927 32.9385 30.0986C32.049 30.0685 31.1779 29.8368 30.3909 29.4211C29.6039 29.0054 28.9216 28.4164 28.3954 27.6986C28.5154 27.5462 28.6642 27.3722 28.8358 27.191C29.048 26.9591 29.1607 26.6531 29.1497 26.3389C29.1387 26.0247 29.0048 25.7273 28.7768 25.5108C28.5488 25.2943 28.245 25.1759 27.9306 25.1811C27.6162 25.1863 27.3165 25.3147 27.0958 25.5387C26.6381 26.0116 26.2355 26.5349 25.8958 27.0986C25.7945 27.2785 25.7412 27.4814 25.7412 27.6878C25.7412 27.8942 25.7945 28.0972 25.8958 28.277C26.6231 29.5134 27.6488 30.5477 28.8792 31.2852C30.1095 32.0227 31.5052 32.4399 32.9385 32.4985C34.0805 32.4813 35.2058 32.2219 36.2401 31.7374C37.2744 31.2529 38.194 30.5545 38.9384 29.6882C39.6827 30.5545 40.6023 31.2529 41.6366 31.7374C42.6709 32.2219 43.7962 32.4813 44.9382 32.4985C46.3712 32.4415 47.767 32.0261 48.998 31.2903C50.2289 30.5545 51.2557 29.5218 51.9845 28.2866C52.0854 28.1068 52.1384 27.9041 52.1382 27.6979C52.1379 27.4917 52.0846 27.289 51.9833 27.1094ZM38.9384 17.1532C39.6565 17.6797 40.2456 18.3624 40.6613 19.1498C41.0771 19.9372 41.3086 20.8088 41.3383 21.6987C41.3086 22.5887 41.0771 23.4602 40.6613 24.2476C40.2456 25.035 39.6565 25.7178 38.9384 26.2443C38.2197 25.7183 37.6302 25.0357 37.2144 24.2481C36.7986 23.4606 36.5674 22.5888 36.5384 21.6987C36.5677 20.8087 36.799 19.937 37.2148 19.1495C37.6305 18.362 38.2199 17.6794 38.9384 17.1532ZM32.9997 25.1547C32.3917 24.5058 31.9391 23.7273 31.6759 22.8779C31.4127 22.0286 31.3459 21.1305 31.4805 20.2516C32.4073 20.1468 33.3456 20.2284 34.2404 20.4916C34.1739 20.8905 34.1398 21.2942 34.1384 21.6987C34.144 23.5025 34.7808 25.2474 35.9384 26.6306C34.827 26.4629 33.7978 25.946 32.9997 25.1547ZM44.9382 30.0986C43.8144 30.0927 42.7216 29.7292 41.8183 29.0606C43.6125 28.9026 45.2944 28.1204 46.5714 26.8502C46.8566 26.562 47.1179 26.251 47.3526 25.9203C48.1739 26.3659 48.8967 26.9728 49.4777 27.7046C48.9512 28.4208 48.2692 29.0084 47.483 29.423C46.6967 29.8377 45.8266 30.0686 44.9382 30.0986Z" fill="black"/>
</g>
</g>
</svg>
